<svg xmlns="http://www.w3.org/2000/svg" width="546.89716" height="343.875">
  <g fill="none" stroke="#000">
    <path stroke-width="2.83518338" d="M234 206.36218c0 38.10765-30.66849 69-68.5 69s-68.5-30.89235-68.5-69" transform="matrix(0 .35766 -.34783 0 119.548 112.795)"/>
    <path stroke-width="2.83518338" d="M234 206.36218c0 38.10765-30.66849 69-68.5 69s-68.5-30.89235-68.5-69" transform="matrix(0 .35766 .34783 0 305.536 112.795)"/>
    <path stroke-width=".99999923" d="M47.53764 147.48826h329.92268"/>
    <path stroke-width=".99999976" d="M47.93679 196.58823h330.0143"/>
    <path d="M543.21672 204.4771l.57461-2.7828.41183-2.8115-.90041-.7012-1.0181-.7672-.99971-.7288-.98036-.6911-.96008-.6543-.93888-.6182-.9168-.5831-.89383-.5487-.87002-.5153-.84539-.4828-.81993-.4511-.79371-.4204-.76672-.3907-.739-.3619-.71056-.3341-.68144-.3073-.65166-.2815-.62123-.2568-.45825-.1809-.32034-.1408-.27718-.146-.23395-.1496-.19067-.1521-.1474-.1531-.10415-.1528-.0609-.1512-.0178-.1483.19919-1.9245.21188-2.4218.13802-1.9298.0433-.143.0863-.1383.1291-.1324.17175-.1252.21418-.1166.25638-.1068.2983-.096.33993-.083.48271-.099.65638-.1449.69064-.1641.72445-.1843.75779-.2057.79061-.228.82291-.2516.85466-.2762.88581-.3019.91637-.3286.94628-.3564.97554-.3852 1.00411-.415 1.03198-.4458 1.05911-.4776 1.08548-.5104 1.11107-.5441 1.13586-.5788 1.00849-.5342.0826-2.8403-.0826-2.8403-1.00849-.5342-1.13586-.5788-1.11107-.5441-1.08548-.5104-1.05911-.4776-1.03198-.4458-1.00411-.415-.97554-.3852-.94628-.3563-.91637-.3287-.88581-.3018-.85466-.2763-.82291-.2516-.79061-.228-.75779-.2057-.72445-.1843-.69064-.164-.65638-.145-.48271-.099-.33993-.083-.2983-.096-.25638-.1067-.21418-.1167-.17175-.1252-.1291-.1324-.0863-.1383-.0433-.143-.13802-1.9298-.21188-2.4218-.19919-1.9245.0178-.1483.0609-.1512.10415-.1528.1474-.1531.19067-.1521.23395-.1496.27718-.1459.32034-.1409.45825-.1809.62123-.2568.65166-.2815.68144-.3073.71056-.3341.739-.3619.76672-.3907.79371-.4204.81993-.4511.84539-.4828.87002-.5153.89383-.5487.9168-.583.93888-.6183.96008-.6543.98036-.6911.99971-.7288 1.0181-.7672.90041-.7012-.41183-2.8115-.57461-2.7828-1.08592-.3509-1.2191-.3728-1.18868-.3429-1.15762-.3141-1.12595-.2865-1.09371-.2598-1.06093-.2343-1.0276-.21-.9938-.1866-.9595-.1645-.92478-.1435-.88963-.1236-.8541-.1049-.81821-.087-.78198-.071-.74545-.056-.70864-.042-.67158-.029-.4925-.013-.3492-.023-.31037-.042-.27102-.061-.23118-.078-.19087-.093-.15014-.108-.109-.1213-.0675-.1332-.47104-1.8766-.6292-2.3482-.53034-1.8606-.008-.1492.0338-.1595.076-.1686.11857-.1763.16138-.1829.2044-.188.24763-.1918.29101-.1944.41988-.2577.56721-.3608.59287-.3904.61772-.4209.64175-.4524.66493-.4848.68723-.5178.70865-.5519.72914-.5866.74871-.6223.76732-.6585.78497-.6956.80162-.7334.81727-.7719.83188-.81103.84546-.85086.85797-.8913.8694-.93235.76497-.8469-.89379-2.69729-1.0491-2.64075-1.13037-.15705-1.26531-.15538-1.23016-.13128-1.19458-.10835-1.15859-.0866-1.12222-.066-1.08549-.0465-1.04845-.0283-1.01111-.0112-.97349.005-.93565.0193-.89758.0328-.85933.045-.82094.0561-.78242.0659-.74379.0746-.70511.082-.66638.0883-.48733.0724-.34785.0382-.313.0122-.27743-.0126-.24115-.0363-.20421-.0589-.16661-.0803-.12839-.10049-.0896-.1195-.78975-1.76626-1.02739-2.20325-.84539-1.74031-.034-.14545.006-.16295.0456-.17924.0861-.19428.12718-.20809.16865-.22064.21056-.23192.25284-.24193.36874-.32675.49595-.45375.51607-.48741.53524-.52184.55344-.55698.57066-.59282.58686-.62935.60205-.66653.6162-.70435.62929-.74276.64131-.78178.65225-.82135.66209-.86146.67081-.90208.67841-.94318.68486-.98474.69016-1.02675.6943-1.06915.60628-.96686-1.34858-2.50111-1.49173-2.41846-1.14047.0416-1.27307.0667-1.23427.0843-1.19524.10073-1.15602.11593-1.11663.1299-1.07709.14266-1.03743.15419-.9977.16451-.9579.17359-.91808.18147-.87826.18813-.83846.19356-.79873.19779-.75907.2008-.71955.20262-.68015.20322-.64093.20264-.46735.15595-.33593.098-.30613.0664-.2754.0357-.2438.006-.21133-.0226-.17802-.0501-.1439-.0767-.10898-.10213-1.08446-1.60228-1.39438-1.99139-1.13475-1.56706-.0587-.13735-.0228-.16144.0138-.18443.0511-.20629.0891-.22701.12777-.24658.16709-.26495.20699-.28216.30639-.38582.40963-.53297.42359-.56963.4365-.60685.44831-.64462.45904-.68291.46866-.7217.47716-.76095.48453-.80064.49075-.84076.49582-.88127.49971-.92213.50244-.96334.50398-1.00486.50432-1.04665.50345-1.08871.50139-1.131.49809-1.17347.42918-1.05745-1.76241-2.22893-1.88903-2.12269-1.11591.23903-1.24214.28676-1.20088.29737-1.15959.30676-1.11833.3149-1.0771.32183-1.03596.32753-.9949.33199-.95397.33526-.9132.33729-.87262.33814-.83225.33777-.79211.33623-.75225.33348-.71268.32956-.67343.32449-.63452.31824-.59601.31085-.43317.23474-.31381.15486-.28995.11853-.26501.083-.23904.0483-.21203.0145-.18402-.0184-.15502-.0505-.12507-.0817-1.34621-1.38963-1.719-1.71899-1.38963-1.34622-.0816-.12506-.0505-.15502-.0185-.18402.0145-.21204.0483-.23903.083-.26502.11854-.28995.15485-.31381.23474-.43316.31086-.59601.31824-.63453.32448-.67343.32957-.71268.33348-.75224.33622-.79212.33777-.83224.33814-.87262.3373-.91321.33525-.95397.332-.9949.32752-1.03595.32183-1.0771.31491-1.11833.30675-1.1596.29738-1.20087.28675-1.24214.23903-1.11592-2.12268-1.88903-2.22893-1.7624-1.05746.42917-1.17347.4981-1.13099.50138-1.08871.50346-1.04666.50432-1.00485.50397-.96334.50244-.922138.49972-.881264.49581-.84076.49075-.800645.48453-.760949.47716-.721695.46866-.68291.45904-.644621.44832-.606852.43649-.569627.4236-.532973.40962-.385822.30639-.282154.207-.264959.16708-.246574.12778-.227013.0891-.206293.0511-.18443.0138-.16144-.0228-.137341-.0587-1.56707-1.13475-1.99138-1.39438-1.602285-1.08445-.102126-.10899-.07667-.14389-.05013-.17802-.02254-.21133.0061-.2438.03574-.27541.06639-.30613.09801-.33593.155953-.46734.202635-.64094.203223-.68015.202614-.71954.200805-.75908.197789-.79873.193564-.83846.188124-.87826.18147-.91808.173597-.9579.164504-.99769.154191-1.03744.142657-1.07709.129902-1.11662.115928-1.15603.100734-1.19524.08433-1.23427.0667-1.27306.04162-1.14047-2.418462-1.49173-2.501106-1.34859-.966864.60629-1.069154.69429-1.026745.69017-.984746.68486-.943181.67841-.902075.67081-.861457.66208-.82135.65226-.781778.64131-.742769.62929-.704344.6162-.66653.60204-.629349.58687-.592824.57065-.556979.55344-.521836.53524-.487417.51608-.453745.49595-.326756.36873-.241923.25285-.23192.21055-.220639.16866-.208092.12717-.194286.0861-.179235.0456-.162952.006-.145446-.034-1.740309-.84539-2.203259-1.0274-1.766256-.78975-.119499-.0896-.10049-.1284-.08028-.16661-.05889-.2042-.03634-.24115-.01263-.27743.01222-.31301.03819-.34785.07243-.48732.08826-.66638.08203-.70511.07459-.7438.06594-.78241.05609-.82094.04503-.85934.03276-.89758.01929-.93564.0046-.9735-.01124-1.0111-.0283-1.04845-.04655-1.0855-.06597-1.12222-.08658-1.15859-.108348-1.19458-.131285-1.23016-.155376-1.2653-.157049-1.13037-2.640755-1.04911-2.697288-.89378-.846896.76496-.932347.86941-.891302.85797-.85086.84545-.811048.83189-.771886.81726-.733399.80162-.695609.78497-.658538.76732-.62221.74871-.586642.72915-.551859.70864-.51788.68723-.484725.66493-.452413.64175-.420964.61773-.390397.59287-.36073.56721-.257763.41987-.194341.29101-.191834.24763-.188001.20441-.182847.16137-.176375.11858-.168596.076-.159511.0338-.149132-.008-1.860671-.53035-2.348192-.62919-1.876561-.47105-.133242-.0675-.121259-.10899-.107995-.15014-.09346-.19088-.07766-.23118-.06061-.27102-.04232-.31037-.0228-.34919-.01329-.4925-.0288-.67159-.04166-.70864-.0557-.74545-.07093-.78198-.08732-.8182-.104881-.8541-.123602-.88963-.143475-.92478-.164494-.95951-.186649-.99379-.209932-1.02761-.234332-1.06092-.25984-1.09372-.286447-1.12595-.314138-1.15762-.342905-1.18867-.372734-1.2191-.35095-1.08593-2.782812-.5746-2.811514-.41183-.701194.9004-.767212 1.0181-.728776.99971-.691122.98036-.654271.96008-.618243.93889-.583057.91679-.548733.89384-.51529.87002-.482744.84538-.451116.81994-.42042.7937-.390675.76672-.361898.739-.3341.71056-.307303.68144-.281515.65166-.256755.62123-.180937.45825-.140854.32034-.14592.27718-.14965.23395-.152045.19067-.153107.1474-.152832.10415-.151225.061-.148287.0178-1.924497-.19918-2.421775-.21188-1.929848-.13803-.142936-.0433-.138344-.0863-.132426-.1291-.125721-.17059-.116626-.21418-.106752-.25638-.095571-.29831-.083088-.33993-.098613-.48271-.144979-.65638-.164079-.69064-.184303-.72445-.205637-.75778-.228073-.79062-.251601-.82291-.276208-.85465-.301882-.88582-.328611-.91636-.356383-.94629-.385184-.97554-.415-1.00411-.445814-1.03198-.477615-1.05911-.510384-1.08548-.544107-1.11107-.578765-1.13585-.534188-1.00849-2.840314-.08265-2.840314.0826-.534188 1.00849-.578765 1.13585-.544107 1.11107-.510384 1.08548-.477615 1.05911-.445814 1.03198-.415 1.00411-.385184.97554-.356383.94629-.328611.91636-.301882.88582-.276208.85465-.251601.82291-.228073.79062-.205637.75778-.184303.72445-.164079.69064-.144979.65638-.098613.48271-.083088.33993-.095571.29831-.106752.25638-.116626.21418-.125184.17175-.132426.1291-.138344.0863-.142936.0433-1.929848.13803-2.421775.21188-1.924497.19918-.148287-.0178-.151225-.061-.152832-.10415-.153107-.1474-.152045-.19067-.14965-.23395-.14592-.27718-.140854-.32034-.180937-.45825-.256755-.62123-.281516-.65166-.307302-.68144-.3341-.71056-.361898-.739-.390675-.76672-.42042-.7937-.451116-.81994-.482744-.84538-.51529-.87002-.548733-.89384-.583057-.91679-.618243-.93889-.654271-.96008-.691122-.98036-.728776-.99971-.767212-1.0181-.701194-.9004-2.811514.41183-2.782812.5746-.35095 1.08593-.372734 1.2191-.342905 1.18867-.314138 1.15762-.286447 1.12595-.25984 1.09372-.234332 1.06092-.209932 1.02761-.186649.99379-.164494.95951-.143475.92478-.123602.88963-.104881.8541-.08732.8182-.07093.78198-.0557.74545-.04166.70864-.0288.67159-.01329.4925-.0228.34919-.04232.31037-.06061.27102-.07766.23118-.09346.19088-.107995.15014-.121259.10899-.133242.0675-1.876561.47105-2.348192.62919-1.860671.53035-.149132.008-.159511-.0338-.168596-.076-.176375-.11857-.182847-.16138-.188001-.20441-.191834-.24763-.194341-.29101-.257763-.41987-.36073-.56721-.390397-.59287-.420964-.61773-.452413-.64175-.484725-.66493-.51788-.68723-.551859-.70864-.586642-.72915-.62221-.74871-.658538-.76732-.695609-.78497-.733399-.80162-.771886-.81726-.811048-.83189-.85086-.84545-.891302-.85797-.932347-.86941-.846896-.76496-2.697288.89378-2.640755 1.04911-.157049 1.13037-.155376 1.2653-.131285 1.23016-.108348 1.19458-.08658 1.15859-.06597 1.12222-.04655 1.0855-.0283 1.04845-.01124 1.0111.0046.9735.01929.93564.03276.89758.04503.85934.05609.82094.06594.78241.07459.7438.08203.70511.08826.66638.07243.48732.03819.34785.01222.31301-.01263.27743-.03634.24115-.05889.2042-.08028.16661-.10049.1284-.119499.0896-1.766256.78975-2.203259 1.0274-1.740309.84539-.145446.034-.162952-.006-.179235-.0456-.194286-.0861-.208092-.12717-.220639-.16866-.23192-.21055-.241923-.25285-.326756-.36873-.453745-.49595-.487417-.51608-.521836-.53524-.556979-.55344-.592824-.57065-.629349-.58687-.66653-.60204-.704344-.6162-.742769-.62929-.781778-.64131-.82135-.65226-.861457-.66208-.902075-.67081-.943181-.67841-.984746-.68486-1.026745-.69017-1.069154-.69429-.966864-.60629-2.501106 1.34859-2.418462 1.49173.04162 1.14047.0667 1.27306.08433 1.23427.100734 1.19524.115928 1.15603.129902 1.11662.142657 1.07709.154191 1.03744.164504.99769.173597.9579.18147.91808.188124.87826.193564.83846.197789.79873.200805.75908.202614.71954.203223.68015.202635.64094.155953.46734.09801.33593.06639.30613.03574.27541.0061.2438-.02254.21133-.05013.17802-.07667.14389-.102126.10899-1.602285 1.08445-1.99138 1.39438-1.56707 1.13475-.137341.0587-.16144.0228-.18443-.0138-.206293-.0511-.227013-.0891-.246574-.12778-.264959-.16708-.282154-.207-.385822-.30639-.532973-.40962-.569627-.4236-.606852-.43649-.644621-.44832-.68291-.45904-.721695-.46866-.760949-.47716-.800645-.48453-.84076-.49075-.881264-.49581-.922135-.49972-.96334-.50244-1.00485-.50397-1.04666-.50432-1.08871-.50346-1.13099-.50138-1.17347-.4981-1.05746-.42917-2.22893 1.7624-2.12268 1.88903.23903 1.11592.28675 1.24214.29738 1.20087.30675 1.1596.31491 1.11833.32183 1.0771.32752 1.03595.332.9949.33525.95397.3373.91321.33814.87262.33777.83224.33622.79212.33348.75224.32957.71268.32448.67343.31824.63453.31086.59601.23474.43316.15485.31381.11854.28995.083.26502.0483.23903.0145.21204-.0185.18402-.0505.15502-.0816.12506-1.38963 1.34622-1.719 1.71899-1.34621 1.38963-.12507.0817-.15502.0505-.18402.0184-.21203-.0145-.23904-.0483-.26501-.083-.28995-.11853-.31381-.15486-.43317-.23474-.59601-.31085-.63452-.31824-.67343-.32449-.71268-.32956-.75225-.33348-.79211-.33623-.83225-.33777-.87262-.33814-.9132-.33729-.95397-.33526-.9949-.33199-1.03596-.32753-1.0771-.32183-1.11833-.3149-1.15959-.30676-1.20088-.29737-1.24214-.28676-1.11591-.23903-1.88903 2.12269-1.76241 2.22893.42918 1.05745.49809 1.17347.50139 1.131.50345 1.08871.50432 1.04665.50398 1.00486.50244.96334.49971.92213.49582.88127.49075.84076.48453.80064.47716.76095.46866.7217.45904.68291.44831.64462.4365.60685.42359.56963.40963.53297.30639.38582.20699.28216.16709.26495.12777.24658.0891.22701.0511.20629.0138.18443-.0228.16144-.0587.13735-1.13475 1.56706-1.39438 1.99139-1.08446 1.60228-.10898.10213-.1439.0767-.17802.0501-.21133.0226-.2438-.006-.2754-.0357-.30613-.0664-.33593-.098-.46735-.15595-.64093-.20264-.68015-.20322-.71955-.20262-.75907-.2008-.79873-.19779-.83846-.19356-.87826-.18813-.91808-.18147-.9579-.17359-.9977-.16451-1.03743-.15419-1.07709-.14266-1.11663-.1299-1.15602-.11593-1.19524-.10073-1.23427-.0843-1.27307-.0667-1.14047-.0416-1.49173 2.41846-1.34858 2.50111.60628.96686.6943 1.06915.69016 1.02675.68486.98474.67841.94318.67081.90208.66209.86146.65225.82135.64131.78178.62929.74276.6162.70435.60205.66653.58686.62935.57066.59282.55344.55698.53524.52184.51607.48741.49595.45375.36874.32675.25284.24193.21056.23192.16865.22064.12718.20809.0861.19428.0456.17924.006.16295-.034.14545-.84539 1.74031-1.02739 2.20325-.78975 1.76626-.0896.1195-.12839.10049-.16661.0803-.20421.0589-.24115.0363-.27743.0126-.313-.0122-.34785-.0382-.48733-.0724-.66638-.0883-.70511-.082-.74379-.0746-.78242-.0659-.82094-.0561-.85933-.045-.89758-.0328-.93565-.0193-.97349-.005-1.01111.0112-1.04845.0283-1.08549.0465-1.12222.066-1.15859.0866-1.19458.10835-1.23016.13128-1.26531.15538-1.13037.15705-1.0491 2.64075-.89379 2.69729.76497.8469.8694.93235.85797.8913.84546.85086.83188.81102.81727.7719.80162.7334.78497.6956.76732.6585.74871.6223.72914.5866.70865.5519.68723.5178.66493.4848.64175.4524.61772.4209.59287.3904.56721.3608.41988.2577.29101.1944.24763.1918.2044.188.16138.1829.11857.1763.076.1686.0338.1595-.008.1492-.53034 1.8606-.6292 2.3482-.47104 1.8766-.0675.1332-.109.1213-.15014.108-.19087.093-.23118.078-.27102.061-.31037.042-.3492.023-.4925.013-.67158.029-.70864.042-.74545.056-.78198.071-.81821.087-.8541.1049-.88963.1236-.92478.1435-.9595.1645-.9938.1866-1.0276.21-1.06093.2343-1.09371.2598-1.12595.2865-1.15762.3141-1.18868.3429-1.2191.3728-1.08592.3509-.57461 2.7828-.41183 2.8115.90041.7012 1.0181.7672.99971.7288.98036.6911.96008.6543.93888.6183.9168.583.89383.5487.87002.5153.84539.4828.81993.4511.79371.4204.76672.3907.739.3619.71056.3341.68144.3073.65166.2815.62123.2568.45825.1809.32034.1409.27718.1459.23395.1496.19067.1521.1474.1531.10415.1528.0609.1512.0178.1483-.19919 1.9245-.21188 2.4218-.13802 1.9298-.0433.143-.0863.1383-.1291.1324-.17175.1252-.21418.1167-.25638.1067-.2983.096-.33993.083-.48271.099-.65638.145-.69064.164-.72445.1843-.75779.2057-.79061.228-.82291.2516-.85466.2763-.88581.3018-.91637.3287-.94628.3563-.97554.3852-1.00411.415-1.03198.4458-1.05911.4776-1.08548.5104-1.11107.5441-1.13586.5788-1.00849.5342-.0826 2.8403.0826 2.8403 1.00849.5342 1.13586.5788 1.11107.5441 1.08548.5104 1.05911.4776 1.03198.4458 1.00411.415.97554.3852.94628.3564.91637.3286.88581.3019.85466.2762.82291.2516.79061.228.75779.2057.72445.1843.69064.1641.65638.1449.48271.099.33993.083.2983.096.25638.1068.21418.1166.17175.1252.1291.1324.0863.1383.0433.143.13802 1.9298.21188 2.4218.19919 1.9245-.0178.1483-.0609.1512-.10415.1528-.1474.1531-.19067.1521-.23395.1496-.27718.146-.32034.1408-.45825.1809-.62123.2568-.65166.2815-.68144.3073-.71056.3341-.739.3619-.76672.3907-.79371.4204-.81993.4511-.84539.4828-.87002.5153-.89383.5487-.9168.5831-.93888.6182-.96008.6543-.98036.6911-.99971.7288-1.0181.7672-.90041.7012.41183 2.8115.57461 2.7828 1.08592.3509 1.2191.3728 1.18868.3429 1.15762.3141 1.12595.2865 1.09371.2598 1.06093.2343 1.0276.21.9938.1866.9595.1645.92478.1435.88963.1236.8541.1049.81821.087.78198.071.74545.056.70864.042.67158.029.4925.013.3492.023.31037.042.27102.061.23118.078.19087.093.15014.108.109.1213.0675.1332.47104 1.8766.6292 2.3482.53034 1.8606.008.1492-.0338.1595-.076.1686-.11857.1764-.16138.1828-.2044.188-.24763.1918-.29101.1944-.41988.2577-.56721.3608-.59287.3904-.61772.4209-.64175.4524-.66493.4848-.68723.5179-.70865.5518-.72914.5867-.74871.6222-.76732.6585-.78497.6956-.80162.7334-.81727.7719-.83188.811-.84546.8509-.85797.8913-.8694.9324-.76497.8468.89379 2.6973 1.0491 2.6408 1.13037.157 1.26531.1554 1.23016.1313 1.19458.1083 1.15859.087 1.12222.066 1.08549.046 1.04845.028 1.01111.011h.97349l.93565-.019.89758-.033.85933-.045.82094-.056.78242-.066.74379-.075.70511-.082.66638-.088.48733-.072.34785-.038.313-.012.27743.013.24115.036.20421.059.16661.08.12839.1005.0896.1195.78975 1.7662 1.02739 2.2033.84539 1.7403.034.1454-.006.163-.0456.1792-.0861.1943-.12718.2081-.16865.2207-.21056.2319-.25284.2419-.36874.3268-.49595.4537-.51607.4874-.53524.5218-.55344.557-.57066.5929-.58686.6293-.60205.6665-.6162.7044-.62929.7427-.64131.7818-.65225.8214-.66209.8614-.67081.9021-.67841.9432-.68486.9847-.69016 1.0268-.6943 1.0691-.60628.9669 1.34858 2.5011 1.49173 2.4185 1.14047-.042 1.27307-.067 1.23427-.084 1.19524-.1007 1.15602-.116 1.11663-.1299 1.07709-.1426 1.03743-.1542.9977-.1645.9579-.1736.91808-.1815.87826-.1881.83846-.1936.79873-.1977.75907-.2009.71955-.2026.68015-.2032.64093-.2026.46735-.156.33593-.098.30613-.066.2754-.036.2438-.01.21133.023.17802.05.1439.077.10898.1022 1.08446 1.6022 1.39438 1.9914 1.13475 1.5671.0587.1373.0228.1615-.0138.1844-.0511.2063-.0891.227-.12777.2466-.16709.2649-.20699.2822-.30639.3858-.40963.533-.42359.5696-.4365.6069-.44831.6446-.45904.6829-.46866.7217-.47716.7609-.48453.8007-.49075.8408-.49582.8812-.49971.9222-.50244.9633-.50398 1.0048-.50432 1.0467-.50345 1.0887-.50139 1.131-.49809 1.1735-.42918 1.0574 1.76241 2.229 1.88903 2.1226 1.11591-.239 1.24214-.2867 1.20088-.2974 1.15959-.3068 1.11833-.3149 1.0771-.3218 1.03596-.3275.9949-.332.95397-.3353.9132-.3373.87262-.3381.83225-.3378.79211-.3362.75225-.3335.71268-.3296.67343-.3244.63452-.3183.59601-.3108.43317-.2348.31381-.1548.28995-.1186.26501-.083.23904-.048.21203-.014.18402.018.15502.051.12507.082 1.34621 1.3896 1.719 1.719 1.38963 1.3462.0816.1251.0505.155.0185.1841-.0145.212-.0483.239-.083.265-.11854.29-.15485.3138-.23474.4332-.31086.596-.31824.6345-.32448.6734-.32957.7127-.33348.7523-.33622.7921-.33777.8322-.33814.8726-.3373.9132-.33525.954-.332.9949-.32752 1.036-.32183 1.0771-.31491 1.1183-.30675 1.1596-.29738 1.2009-.28675 1.2421-.23903 1.1159 2.12268 1.889 2.22893 1.7625 1.05746-.4292 1.17347-.4981 1.13099-.5014 1.08871-.5035 1.04666-.5043 1.00485-.504.96334-.5024.922135-.4997.881264-.4958.84076-.4908.800645-.4845.760949-.4772.721695-.4686.68291-.4591.644621-.4483.606852-.4365.569627-.4236.532973-.4096.385822-.3064.282154-.207.264959-.1671.246574-.1277.227013-.089.206293-.051.18443-.014.16144.023.137341.059 1.56707 1.1347 1.99138 1.3944 1.602285 1.0845.102126.109.07667.1439.05013.178.02254.2113-.0061.2438-.03574.2754-.06639.3061-.09801.336-.155953.4673-.202635.641-.203223.6801-.202614.7196-.200805.759-.197789.7988-.193564.8384-.188124.8783-.18147.9181-.173597.9579-.164504.9977-.154191 1.0374-.142657 1.0771-.129902 1.1166-.115928 1.156-.100734 1.1953-.08433 1.2342-.0667 1.2731-.04162 1.1405 2.418462 1.4917 2.501106 1.3486.966864-.6063 1.069154-.6943 1.026745-.6902.984746-.6848.943181-.6784.902075-.6708.861457-.6621.82135-.6523.781778-.6413.742769-.6293.704344-.6162.66653-.602.629349-.5869.592824-.5706.556979-.5535.521836-.5352.487417-.5161.453745-.4959.326756-.3688.241923-.2528.23192-.2106.220639-.1686.208092-.1272.194286-.086.179235-.045.162952-.01.145446.034 1.740309.8453 2.203259 1.0274 1.766256.7898.119499.09.10049.1284.08028.1666.05889.2042.03634.2411.01263.2775-.01222.313-.03819.3478-.07243.4874-.08826.6663-.08203.7051-.07459.7438-.06594.7825-.05609.8209-.04503.8593-.03276.8976-.01929.9357-.0046.9734.01124 1.0112.0283 1.0484.04655 1.0855.06597 1.1222.08658 1.1586.108348 1.1946.131285 1.2301.155376 1.2654.157049 1.1303 2.640755 1.0491 2.697288.8938.846896-.765.932347-.8694.891302-.8579.85086-.8455.811048-.8319.771886-.8172.733399-.8017.695609-.7849.658538-.7673.62221-.7488.586642-.7291.551859-.7086.51788-.6873.484725-.6649.452413-.6418.420964-.6177.390397-.5928.36073-.5673.257763-.4198.194341-.291.191834-.2477.188001-.2044.182847-.1614.176375-.1185.168596-.076.159511-.034.149132.01 1.860671.5303 2.348192.6292 1.876561.471.133242.067.121259.109.107995.1502.09346.1908.07766.2312.06061.271.04232.3104.0228.3492.01329.4925.0288.6716.04166.7086.0557.7455.07093.782.08732.8182.104881.8541.123602.8896.143475.9248.164494.9595.186649.9938.209932 1.0276.234332 1.0609.25984 1.0937.286447 1.126.314138 1.1576.342905 1.1887.372734 1.2191.35095 1.0859 2.782812.5746 2.811514.4118.701194-.9004.767212-1.0181.728776-.9997.691122-.9804.654271-.96.618243-.9389.583057-.9168.548733-.8938.51529-.8701.482744-.8454.451116-.8199.42042-.7937.390675-.7667.361898-.739.3341-.7106.307303-.6814.281515-.6517.256755-.6212.180937-.4583.140854-.3203.14592-.2772.14965-.2339.152045-.1907.153107-.1474.152832-.1041.151225-.061.148287-.018 1.924497.1992 2.421775.2118 1.929848.1381.142936.043.138344.086.132426.1291.125184.1717.116626.2142.106752.2564.095571.2983.083088.3399.098613.4827.144979.6564.164079.6906.184303.7245.205637.7578.228073.7906.251601.8229.276208.8547.301882.8858.328611.9163.356383.9463.385184.9756.415 1.0041.445814 1.0319.477615 1.0592.510384 1.0854.544107 1.1111.578765 1.1359.534188 1.0085 2.840314.083 2.840314-.083.534188-1.0085.578765-1.1359.544107-1.1111.510384-1.0854.477615-1.0592.445814-1.0319.415-1.0041.385184-.9756.356383-.9463.328611-.9163.301882-.8858.276208-.8547.251601-.8229.228073-.7906.205637-.7578.184303-.7245.164079-.6906.144979-.6564.098613-.4827.083088-.3399.095571-.2983.106752-.2564.116626-.2142.125184-.1717.132426-.1291.138344-.086.142936-.043 1.929848-.1381 2.421775-.2118 1.924497-.1992.148287.018.151225.061.152832.1041.153107.1474.152045.1907.14965.2339.14592.2772.140854.3203.180937.4583.256755.6212.281516.6517.307302.6814.3341.7106.361898.739.390675.7667.42042.7937.451116.8199.482744.8454.51529.8701.548733.8938.583057.9168.618243.9389.654271.96.691122.9804.728776.9997.767212 1.0181.701194.9004 2.811514-.4118 2.782812-.5746.35095-1.0859.372734-1.2191.342905-1.1887.314138-1.1576.286447-1.126.25984-1.0937.234332-1.0609.209932-1.0276.186649-.9938.164494-.9595.143475-.9248.123602-.8896.104881-.8541.08732-.8182.07093-.782.0557-.7455.04166-.7086.0288-.6716.01329-.4925.0228-.3492.04232-.3104.06061-.271.07766-.2312.09346-.1908.107995-.1502.121259-.109.133242-.067 1.876561-.471 2.348192-.6292 1.860671-.5303.149132-.01.159511.034.168596.076.176375.1185.182847.1614.188001.2044.191834.2477.194341.291.257763.4198.36073.5673.390397.5928.420964.6177.452413.6418.484725.6649.51788.6873.551859.7086.586642.7291.62221.7488.658538.7673.695609.7849.733399.8017.771886.8172.811048.8319.85086.8455.891302.8579.932347.8694.846896.765 2.697288-.8938 2.640755-1.0491.157049-1.1303.155376-1.2654.131285-1.2301.108348-1.1946.08658-1.1586.06597-1.1222.04655-1.0855.0283-1.0484.01124-1.0112-.0046-.9734-.01929-.9357-.03276-.8976-.04503-.8593-.05609-.8209-.06594-.7825-.07459-.7438-.08203-.7051-.08826-.6663-.07243-.4874-.03819-.3478-.01222-.313.01263-.2775.03634-.2411.05889-.2042.08028-.1666.10049-.1284.119499-.09 1.766256-.7898 2.203259-1.0274 1.740309-.8453.145446-.034.162952.01.179235.045.194286.086.208092.1272.220639.1686.23192.2106.241923.2528.326756.3688.453745.4959.487417.5161.521836.5352.556979.5535.592824.5706.629349.5869.66653.602.704344.6162.742769.6293.781778.6413.82135.6523.861457.6621.902075.6708.943181.6784.984746.6848 1.026745.6902 1.069154.6943.966864.6063 2.501106-1.3486 2.418462-1.4917-.04162-1.1405-.0667-1.2731-.08433-1.2342-.100734-1.1953-.115928-1.156-.129902-1.1166-.142657-1.0771-.154191-1.0374-.164504-.9977-.173597-.9579-.18147-.9181-.188124-.8783-.193564-.8384-.197789-.7988-.200805-.759-.202614-.7196-.203223-.6801-.202635-.641-.155953-.4673-.09801-.336-.06639-.3061-.03574-.2754-.0061-.2438.02254-.2113.05013-.178.07667-.1439.102126-.109 1.602285-1.0845 1.99138-1.3944 1.56707-1.1347.137341-.059.16144-.023.18443.014.206293.051.227013.089.246574.1277.264959.1671.282154.207.385822.3064.532973.4096.569627.4236.606852.4365.644621.4483.68291.4591.721695.4686.760949.4772.800645.4845.84076.4908.881264.4958.922135.4997.96334.5024 1.00485.504 1.04666.5043 1.08871.5035 1.13099.5014 1.17347.4981 1.05746.4292 2.22893-1.7625 2.12268-1.889-.23903-1.1159-.28675-1.2421-.29738-1.2009-.30675-1.1596-.31491-1.1183-.32183-1.0771-.32752-1.036-.332-.9949-.33525-.954-.3373-.9132-.33814-.8726-.33777-.8322-.33622-.7921-.33348-.7523-.32957-.7127-.32448-.6734-.31824-.6345-.31086-.596-.23474-.4332-.15485-.3138-.11854-.29-.083-.265-.0483-.239-.0145-.212.0185-.1841.0505-.155.0816-.1251 1.38963-1.3462 1.719-1.719 1.34621-1.3896.12507-.082.15502-.051.18402-.018.21203.014.23904.048.26501.083.28995.1186.31381.1548.43317.2348.59601.3108.63452.3183.67343.3244.71268.3296.75225.3335.79211.3362.83225.3378.87262.3381.9132.3373.95397.3353.9949.332 1.03596.3275 1.0771.3218 1.11833.3149 1.15959.3068 1.20088.2974 1.24214.2867 1.11591.239 1.88903-2.1226 1.76241-2.229-.42918-1.0574-.49809-1.1735-.50139-1.131-.50345-1.0887-.50432-1.0467-.50398-1.0048-.50244-.9633-.49971-.9222-.49582-.8812-.49075-.8408-.48453-.8007-.47716-.7609-.46866-.7217-.45904-.6829-.44831-.6446-.4365-.6069-.42359-.5696-.40963-.533-.30639-.3858-.20699-.2822-.16709-.2649-.12777-.2466-.0891-.227-.0511-.2063-.0138-.1844.0228-.1615.0587-.1373 1.13475-1.5671 1.39438-1.9914 1.08446-1.6022.10898-.1022.1439-.077.17802-.05.21133-.023.2438.01.2754.036.30613.066.33593.098.46735.156.64093.2026.68015.2032.71955.2026.75907.2009.79873.1977.83846.1936.87826.1881.91808.1815.9579.1736.9977.1645 1.03743.1542 1.07709.1426 1.11663.1299 1.15602.116 1.19524.1007 1.23427.084 1.27307.067 1.14047.042 1.49173-2.4185 1.34858-2.5011-.60628-.9669-.6943-1.0691-.69016-1.0268-.68486-.9847-.67841-.9432-.67081-.9021-.66209-.8614-.65225-.8214-.64131-.7818-.62929-.7427-.6162-.7044-.60205-.6665-.58686-.6293-.57066-.5929-.55344-.557-.53524-.5218-.51607-.4874-.49595-.4537-.36874-.3268-.25284-.2419-.21056-.2319-.16865-.2207-.12718-.2081-.0861-.1943-.0456-.1792-.006-.163.034-.1454.84539-1.7403 1.02739-2.2033.78975-1.7662.0896-.1195.12839-.1005.16661-.08.20421-.059.24115-.036.27743-.013.313.012.34785.038.48733.072.66638.088.70511.082.74379.075.78242.066.82094.056.85933.045.89758.033.93565.019h.97349l1.01111-.011 1.04845-.028 1.08549-.046 1.12222-.066 1.15859-.087 1.19458-.1083 1.23016-.1313 1.26531-.1554 1.13037-.157 1.0491-2.6408.89379-2.6973-.76497-.8468-.8694-.9324-.85797-.8913-.84546-.8509-.83188-.811-.81727-.7719-.80162-.7334-.78497-.6956-.76732-.6585-.74871-.6222-.72914-.5867-.70865-.5518-.68723-.5179-.66493-.4848-.64175-.4524-.61772-.4209-.59287-.3904-.56721-.3608-.41988-.2577-.29101-.1944-.24763-.1918-.2044-.188-.16138-.1828-.11857-.1764-.076-.1686-.0338-.1595.008-.1492.53034-1.8606.6292-2.3482.47104-1.8766.0675-.1332.109-.1213.15014-.108.19087-.093.23118-.078.27102-.061.31037-.042.3492-.023.4925-.013.67158-.029.70864-.042.74545-.056.78198-.071.81821-.087.8541-.1049.88963-.1236.92478-.1435.9595-.1645.9938-.1866 1.0276-.21 1.06093-.2343 1.09371-.2598 1.12595-.2865 1.15762-.3141 1.18868-.3429 1.2191-.3728 1.08592-.3509z"/>
    <path d="M375.948314 186.0634l-.988674.0345-.988674-.034-.983858-.1034-.974248-.1718-.959891-.2393-.940859-.3057-.917241-.3706-.889157-.4337-.856739-.4946-.820148-.5532-.779561-.6091-.735176-.6619-.687209-.7117-.635895-.7578-.581483-.8003-.524237-.839-.464437-.8735-.402375-.9037-.338353-.9296-.272682-.951-.205682-.9676-.137681-.9797-.06901-.9869v-.9892l.06901-.9869.137681-.9797.205682-.9676.272682-.951.338353-.9296.402375-.9037.464437-.8735.524237-.839.581483-.8003.635895-.7578.687209-.7117.735176-.6619.779561-.6091.820148-.5532.856739-.4946.889157-.4337.917241-.3706.940859-.3057.959891-.2393.974248-.1718.983858-.1034.988674-.035.988674.034.983858.1034.974248.1718.959891.2393.940859.3057.917241.3706.889157.4337.856739.4946.820148.5532.779561.6091.735176.6619.687209.7117.635895.7578.581483.8003.524237.839.464437.8735.402375.9037.338353.9296.272682.951.205682.9676.137681.9797.06901.9869v.9892l-.06901.9869-.137681.9797-.205682.9676-.272682.951-.338353.9296-.402375.9037-.464437.8735-.524237.839-.581483.8003-.635895.7578-.687209.7117-.735176.6619-.779561.6091-.820148.5532-.856739.4946-.889157.4337-.917241.3706-.940859.3057-.959891.2393-.974248.1718-.983858.1034zM216.81944 153.74577l.6338 2.2362.47801 2.2746-.94128 1.0485-1.15604 1.1792-1.1305 1.056-1.0965.9376-1.05445.8242-1.0047.7166-.94771.615-.8839.5198-.81372.4317-.7377.3507-.6563.2774-.57008.2119-.47956.1547-.3853.1058-.28787.066-.18786.034-.0858.012-.17693.016-.95882.1393-.84185.2083-.72087.2674-.59654.3162-.46955.3544-.34056.3822-.21025.3993-.0793.4056.0793 1.8041v2.173l-.0793 1.8041.0793.4056.21025.3993.34056.3822.46955.3544.59654.3162.72087.2674.84185.2084.95882.1393.17693.016.0858.012.18786.034.28787.066.3853.1058.47956.1547.57008.2119.6563.2774.7377.3507.81372.4317.8839.5198.94771.615 1.0047.7166 1.05445.8242 1.0965.9376 1.1305 1.056 1.15604 1.1792.94128 1.0485-.47801 2.2746-.6338 2.2362-1.32073.491-1.57161.5068-1.49176.4098-1.40662.3206-1.31672.2398-1.22263.1676-1.12495.1041-1.02425.049h-.92112l-.81618-.032-.71002-.059-.60327-.077-.4965-.086-.39034-.085-.2854-.076-.18223-.057-.0815-.03-.16427-.068-.91373-.3223-.84225-.2067-.76257-.098h-.67513l-.58049.096-.47916.1802-.37172.2558-.25874.3223-.76815 1.6343-1.00987 1.9241-.90862 1.5606-.11827.396.00061.4512.12394.4967.25104.5321.3813.5571.51403.5718.64858.5758.78426.5689.14905.097.0705.05.15043.1176.22441.1919.29199.2727.35276.3599.40629.4525.45223.5506.49021.6534.51991.7604.54106.871.55336.985.55661 1.1014.55062 1.2199.53519 1.3397.51024 1.4605.47565 1.5813.34619 1.3658-1.48032 1.792-1.60041 1.6855-1.39762-.1791-1.62714-.2815-1.51129-.3305-1.39449-.3698-1.27734-.3996-1.16047-.4198-1.04448-.4306-.92995-.4321-.8175-.4245-.70769-.4078-.60109-.3826-.49825-.3488-.3997-.3068-.30597-.257-.21753-.1996-.13487-.1352-.0584-.064-.11398-.1363-.65931-.71-.64972-.5745-.62956-.4413-.59906-.3114-.55845-.1851-.50799-.063-.44803.054-.37888.1651-1.43965 1.0901-1.7884 1.2344-1.52976.9596-.28877.2957-.20916.3998-.12108.4974-.025.5878.0787.6705.18944.7452.30674.8112.43002.8682.087.1549.0391.077.0786.1741.10953.2742.13179.3772.14514.4825.14943.5896.14455.6976.13043.8064.107.9149.0743 1.0227.0322 1.1293-.019 1.2339-.0794 1.3361-.14872 1.435-.2269 1.5302-.31373 1.6213-.32819 1.3703-2.1435.8987-2.2004.7487-1.15433-.808-1.3099-1.0055-1.1846-.995-1.06291-.9755-.94535-.9474-.83245-.911-.72473-.8667-.62262-.8148-.52659-.7557-.43708-.6901-.35445-.618-.27909-.5404-.21134-.4574-.15149-.3698-.0998-.2778-.0566-.1824-.022-.084-.0376-.1736-.25386-.9351-.30833-.8106-.35234-.6834-.38574-.5541-.40847-.4234-.42046-.292-.4217-.1605-.41223-.03-1.78134.2962-2.15722.2619-1.80046.1387-.39311.1277-.37102.2568-.33835.3842-.29527.5088-.24193.6303-.17856.7479-.10539.8608-.0227.9686.005.1776-.001.087-.0113.1907-.0304.2936-.0586.3953-.0957.4947-.14166.5915-.19623.6849-.25924.7746-.33043.8598-.40954.9401-.49625 1.015-.59025 1.0837-.69115 1.1461-.79856 1.2015-.91208 1.2496-1.03121 1.2897-.92741 1.0608-2.31563-.2003-2.29629-.3597-.64659-1.2519-.6926-1.499-.58653-1.4315-.48782-1.3578-.39678-1.2782-.31374-1.1935-.23895-1.1042-.17265-1.0108-.11506-.9139-.0663-.8141-.0266-.712.004-.6082.0254-.5032.0377-.3978.0407-.2925.0346-.1877.0194-.084.0474-.1712.20976-.9459.10368-.861.006-.7689-.0841-.6699-.16491-.5647-.2366-.454-.29876-.3381-.35115-.218-1.71494-.5656-2.03185-.7706-1.65869-.7139-.4074-.07-.44788.055-.47812.1829-.49792.3133-.50714.4457-.50565.5792-.49336.7132-.47025.8472-.0781.1596-.0414.076-.0986.1635-.16343.2459-.23558.3227-.31466.3936-.4003.4578-.49207.5153-.58951.5654-.69217.6078-.79951.6421-.91108.6681-1.02628.6853-1.14461.6936-1.26547.6928-1.38829.6826-1.51247.6627-1.31416.5083-1.95728-1.2535-1.86613-1.3856.009-1.409.0834-1.6492.1459-1.5401.19902-1.4289.24268-1.3162.27686-1.2026.30157-1.0888.31686-.9752.32284-.8627.31961-.7517.30732-.6428.28618-.5367.2564-.4338.21823-.3347.17196-.24.11792-.1502.0564-.066.12158-.1296.62531-.74.49195-.7143.36226-.6781.23688-.6323.11642-.5766.002-.5119-.10739-.4383-.20961-.3562-1.25568-1.2978-1.44101-1.6266-1.13694-1.4029-.32835-.251-.42214-.1595-.50835-.06-.58651.046-.65616.159-.7169.2779-.76831.4022-.81006.5316-.14329.1051-.072.048-.1633.099-.25898.1418-.35858.1763-.46151.2022-.56724.2195-.67518.2275-.78474.2267-.89532.2165-1.00634.197-1.11718.1682-1.22721.1298-1.33585.082-1.44247.025-1.54647-.041-1.64723-.116-1.39985-.1606-1.15055-2.0196-1.00846-2.0941.663-1.2433.84026-1.4215.84492-1.2959.84026-1.1728.82655-1.0526.80403-.9362.77299-.8239.7338-.7163.68678-.6139.63233-.517.57085-.4264.50279-.3422.42861-.2649.34879-.195.2638-.1326.17421-.078.0805-.032.16786-.058.89763-.3647.76751-.4038.63593-.4321.50356-.4497.37108-.4565.23919-.4526.10859-.438-.0201-.4128-.50875-1.7327-.52005-2.1099-.35472-1.7706-.17409-.3749-.29969-.3373-.42212-.2896-.54074-.2318-.65487-.1642-.76391-.087-.86726-.0009-.96429.094-.1757.026-.0861.01-.19059.012-.29521.01-.39943-.011-.50263-.035-.60423-.069-.70361-.1122-.80019-.164-.89338-.2244-.98263-.2932-1.06734-.3703-1.147-.4553-1.22107-.548-1.28901-.6479-1.35037-.7548-1.40464-.8682-1.16486-.7928-.0802-2.3229.0802-2.3229 1.16486-.7928 1.40464-.8682 1.35037-.7548 1.28901-.6479 1.22107-.548 1.147-.4553 1.06734-.3703.98263-.2932.89338-.2244.80019-.164.70361-.1122.60423-.069.50263-.035.39943-.011.29522.01.19058.012.0861.01.1757.026.96429.094.86726-.0009.76391-.087.65487-.1642.54074-.2318.42212-.2896.29969-.3373.17409-.3749.35472-1.7706.52005-2.1099.50875-1.7326.0201-.4129-.10859-.438-.23919-.4525-.37108-.4566-.50356-.4497-.63593-.4321-.76751-.4038-.89762-.3647-.16787-.058-.0805-.032-.17421-.078-.2638-.1326-.34878-.195-.42861-.2649-.5028-.3422-.57085-.4264-.63233-.517-.68678-.6139-.73379-.7163-.773-.8239-.80403-.9362-.82654-1.0526-.84027-1.1728-.84492-1.2959-.84026-1.4215-.663-1.2433 1.00847-2.0941 1.15054-2.0196 1.39985-.1606 1.64724-.116 1.54646-.041 1.44247.025 1.33585.082 1.22721.1299 1.11718.1681 1.00634.197.89533.2165.78473.2267.67518.2276.56724.2194.46151.2022.35858.1763.25899.1418.16329.099.072.048.14329.1051.81006.5316.76832.4022.71689.2779.65617.159.58651.046.50835-.06.42213-.1595.32836-.251 1.13694-1.4029 1.441-1.6266 1.25568-1.2977.20961-.3563.10739-.4382-.002-.5119-.11641-.5767-.23688-.6323-.36227-.6781-.49195-.7142-.62531-.7401-.12157-.1296-.0564-.066-.11792-.1502-.17197-.24-.21823-.3347-.2564-.4338-.28617-.5367-.30733-.6428-.3196-.7517-.32284-.8627-.31687-.9752-.30157-1.0888-.27685-1.2026-.24268-1.3162-.19902-1.4289-.14591-1.5401-.0834-1.64922-.009-1.40901 1.86614-1.38558 1.95728-1.25353 1.31416.50831 1.51247.66278 1.38828.68255 1.26547.69279 1.14461.69363 1.02629.68532.91107.66806.79952.6421.69216.6078.58951.5654.49207.5153.4003.4578.31467.3936.23557.3227.16344.2459.0986.1636.0414.076.078.1597.47025.8471.49336.7132.50564.5792.50714.4457.49793.3133.47811.1829.44788.055.4074-.07 1.65869-.7139 2.03185-.7706 1.71494-.5656.35115-.218.29877-.3381.23659-.454.16492-.5647.0841-.6699-.006-.7688-.10369-.8611-.20975-.9459-.0474-.1712-.0194-.084-.0346-.18782-.0407-.29244-.0377-.39779-.0254-.50323-.004-.60818.0266-.71201.0663-.81412.11506-.91392.17265-1.0108.23895-1.1042.31373-1.19352.39679-1.27821.48782-1.35772.58653-1.4315.69259-1.49905.64659-1.25193 2.29629-.35963 2.31564-.20035.92741 1.0608 1.03121 1.28975.91207 1.24954.79856 1.20152.69115 1.14611.59025 1.08376.49625 1.01492.40954.94012.33043.85982.25924.77459.19623.68495.14166.59146.0957.49471.0586.39524.0304.29369.0113.19061.001.0866-.005.17761.0227.96862.10539.8608.17855.7479.24194.6303.29527.5088.33835.3842.37102.2568.39311.1277 1.80046.1387 2.15722.2619 1.78134.2962.41223-.03.4217-.1606.42046-.292.40846-.4234.38575-.5541.35234-.6834.30833-.8106.25386-.93506.0376-.17366.022-.0838.0566-.18236.0998-.27786.15149-.36974.21134-.45742.27909-.54038.35445-.61808.43708-.69004.52659-.75577.62262-.81478.72473-.86667.83245-.91101.94535-.94741 1.06291-.9755 1.1846-.99496 1.3099-1.00548 1.15433-.80803 2.2004.7487 2.1435.89872.32819 1.37028.31373 1.62125.2269 1.53027.14872 1.435.0794 1.33603.019 1.23392-.0322 1.12929-.0743 1.02275-.107.9149-.13043.8064-.14455.6977-.14943.5895-.14514.4825-.13179.3772-.10953.2742-.0786.1741-.0391.077-.087.1549-.43003.8682-.30673.8112-.18944.7452-.0787.6705.025.5878.12108.4974.20916.3998.28877.2957 1.52976.9596 1.7884 1.2344 1.43965 1.0901.37888.1652.44803.054.50799-.063.55845-.1851.59906-.3114.62956-.4413.64972-.5745.65931-.7099.11398-.1364.0584-.064.13487-.1352.21753-.1996.30597-.257.3997-.3068.49825-.3488.60109-.3826.7077-.4078.81749-.4245.92995-.4321 1.04448-.4306 1.16047-.4198 1.27734-.3996 1.39449-.3698 1.51129-.3305 1.62714-.2815 1.39762-.1791 1.60041 1.6855 1.48032 1.792-.34619 1.3658-.47565 1.5813-.51024 1.4605-.53519 1.3397-.55062 1.2199-.55661 1.1014-.55336.985-.54106.871-.51991.7604-.49021.6534-.45223.5506-.40629.4526-.35276.3598-.29199.2727-.22441.1919-.15043.1176-.0705.05-.14905.097-.78426.569-.64858.5757-.51403.5718-.3813.5571-.25104.5321-.12394.4967-.00061.4512.11827.396.90863 1.5606 1.00987 1.9241.76814 1.6343.25874.3223.37172.2558.47917.1802.58049.096h.67512l.76258-.098.84225-.2067.91373-.3223.16426-.068.0815-.029.18224-.057.2854-.076.39034-.085.4965-.086.60327-.077.71002-.059.81618-.032h.92112l1.02425.049 1.12495.1041 1.22263.1676 1.31672.2399 1.40662.3206 1.49176.4097 1.57161.5068 1.32073.491z"/>
    <path d="M156.09105 158.68577l-.95168-.2702-.96821-.2031-.98002-.135-.98705-.066h-.98927l-.98668.072-.97928.1404-.9671.2082-.95022.2753-.9287.3408-.90267.4048-.87223.4668-.83754.5265-.79878.5836-.75612.6379-.70978.6892-.65998.7369-.60696.7812-.55099.8216-.49234.8581-.43128.8903-.36813.9183-.30317.9416-.23675.9606-.16917.9747-.10077.9841-.0319.9888.0372.9885.10605.9836.1744.9738.24191.9592.30823.9401.37305.9162.43605.888.49694.8554.5554.8187.61115.7779.66393.7334.71347.6853.75953.6339.8019.5793.84036.522.87472.4621.90483.3999.93052.3359.95169.2701.9682.2031.98002.135.98705.066h.98927l.98668-.072.97928-.1403.9671-.2083.95022-.2753.9287-.3408.90267-.4048.87223-.4668.83754-.5265.79878-.5836.75612-.6379.70978-.6892.65998-.7369.60696-.7812.55099-.8216.49234-.8581.43128-.8903.36813-.9182.30317-.9417.23675-.9606.16917-.9747.10077-.9841.0319-.9888-.0372-.9885-.10605-.9836-.1744-.9738-.24191-.9592-.30823-.9401-.37305-.9162-.43605-.888-.49694-.8554-.5554-.8187-.61115-.7779-.66393-.7334-.71346-.6853-.75954-.6338-.8019-.5794-.84036-.522-.87472-.462-.90483-.4-.93052-.3358zm-60.08758-5.14297l.745 1.8609.62549 1.9045-.3676.6184-1.0948 1.6012-1.10137 1.4097-1.08844 1.2244-1.05685 1.0468-1.00753.8787-.9416.7214-.86026.5763-.7648.4448-.65667.328-.53734.2271-.40841.1428-.27152.076-.0599.013-.9165.017-1.24106.1687-1.07097.2931-.89072.3964-.70232.478-.5078.5371-.30927.5734-.10884.5867.10884 1.7126v1.9938l-.10884 1.7126.10884.5867.30927.5734.5078.5371.70232.478.89072.3964 1.07097.2931 1.24106.1687.9165.017.0599.013.27152.076.40841.1428.53734.2271.65667.328.7648.4448.86026.5763.9416.7214 1.00753.8787 1.05685 1.0468 1.08844 1.2244 1.10137 1.4098 1.0948 1.6011.3676.6184-.62549 1.9045-.745 1.8609-.67912.2375-1.86786.5228-1.74986.372-1.62082.2383-1.48251.1226-1.3366.025-1.18498-.053-1.02944-.1115-.8718-.1508-.71392-.1708-.5576-.1715-.40464-.1531-.25685-.1163-.0541-.029-.7133-.5758-1.05911-.6685-1.0088-.4639-.93715-.2689-.84524-.085-.73424.085-.6055.2404-.4605.3795-1.0175 1.3819-1.28154 1.5273-1.18426 1.242-.29373.5194-.13167.6381.0438.7378.23077.8176.4275.8763.63202.9129.84231.9269.69085.6025.0377.048.15915.2327.22106.3719.26566.5194.29216.6734.29995.8323.28856.9945.25763 1.1578.20702 1.3207.13668 1.4813.0468 1.6376-.0625 1.7879-.19052 1.9302-.11594.7101-1.70329 1.0568-1.7669.9467-.67288-.2546-1.76693-.8002-1.57957-.8398-1.39481-.8593-1.21447-.859-1.04027-.8396-.8739-.8021-.71693-.7471-.57087-.6759-.4371-.5898-.31695-.4897-.21156-.3774-.122-.2542-.0229-.057-.17634-.8995-.38159-1.193-.4746-1.0038-.54509-.8083-.59267-.6087-.61712-.4068-.61841-.205-.59667-.01-1.66775.4046-1.96343.3462-1.70555.1902-.55887.2091-.511.4041-.44076.5934-.34877.7746-.23573.9461-.10266 1.1056.0494 1.2514.14195.9057-.002.061-.0277.2806-.0697.427-.13034.5687-.20905.7036-.30525.8304-.41817.9473-.54688 1.0526-.69035 1.1448-.84743 1.2225-1.0168 1.2846-1.19706 1.3294-1.38671 1.3562-.54522.4694-1.98412-.2853-1.96204-.4105-.35179-.6276-.83923-1.7487-.67017-1.6587-.51615-1.5548-.37818-1.4387-.25718-1.3118-.15391-1.1762-.069-1.0331-.003-.8848.0442-.7327.072-.5789.0805-.4251.0699-.2731.0189-.058.44312-.8024.47449-1.1591.28167-1.0741.10203-.9696-.0628-.8472-.21125-.7083-.34195-.5545-.45366-.3876-1.53764-.7621-1.72661-.9969-1.42879-.9506-.56251-.199-.65123-.019-.71904.1712-.76509.3692-.78869.5732-.7893.781-.76658.9904-.47337.785-.041.045-.20158.1972-.32788.2822-.46533.3518-.61245.4047-.76763.4399-.92922.4569-1.09551.4548-1.26471.4332-1.43502.3918-1.60459.3304-1.77155.249-1.93403.1475-.71939.01-1.33656-1.4939-1.23911-1.5757.1339-.7069.48116-1.879.5528-1.7014.60402-1.5228.63507-1.3452.64624-1.1703.63811-.9999.61127-.8358.56654-.6795.50487-.5329.42726-.3972.33494-.2739.22915-.1643.0519-.032.85525-.3299 1.10854-.5829.90614-.6417.70141-.6772.49649-.6893.29347-.6784.0945-.6446-.0984-.5886-.68805-1.5721-.68189-1.8735-.48349-1.6466-.30293-.5141-.48675-.4331-.66087-.331-.82344-.2089-.97259-.068-1.10662.091-1.2239.266-.8672.297-.0606.01-.28114.022-.43262.01-.5826-.03-.72927-.084-.87082-.1564-1.00549-.2474-1.13153-.3558-1.2473-.481-1.35115-.6223-1.44157-.7783-1.51711-.948-1.5764-1.1302-.55695-.4554-.0636-2.0035.0636-2.0035.55695-.4554 1.5764-1.1302 1.51711-.948 1.44157-.7783 1.35115-.6223 1.2473-.481 1.13153-.3558 1.00549-.2474.87082-.1564.72927-.084.5826-.03.43262.01.28114.022.0606.01.8672.297 1.2239.266 1.10662.091.97259-.068.82344-.2089.66087-.331.48675-.4331.30293-.5141.48349-1.6466.68189-1.8735.68805-1.5721.0984-.5885-.0945-.6447-.29347-.6783-.49649-.6894-.70141-.6772-.90614-.6417-1.10854-.5829-.85525-.3299-.0519-.032-.22915-.1643-.33494-.2739-.42726-.3972-.50487-.5328-.56654-.6796-.61127-.8358-.63811-.9999-.64624-1.1703-.63507-1.3451-.60402-1.5229-.5528-1.7014-.48116-1.879-.1339-.7069 1.23911-1.5756 1.33656-1.4939.71939.01 1.93403.1475 1.77155.249 1.60459.3304 1.43502.3918 1.26471.4332 1.09551.4548.92922.4569.76763.4399.61245.4047.46533.3518.32788.2823.20158.1971.041.045.47337.785.76658.9905.7893.7809.78869.5732.76509.3692.71904.1712.65123-.019.56251-.1991 1.42879-.9506 1.72661-.9969 1.53764-.7621.45366-.3876.34195-.5545.21125-.7083.0628-.8472-.10203-.9696-.28167-1.0741-.47449-1.1591-.44312-.8024-.0189-.058-.0699-.2731-.0805-.4251-.072-.5789-.0442-.7327.003-.8848.069-1.0331.15391-1.1762.25718-1.3118.37818-1.4387.51615-1.5548.67017-1.6587.83923-1.7487.35179-.6276 1.96204-.4105 1.98412-.2853.54522.4694 1.38671 1.3562 1.19706 1.3294 1.0168 1.2846.84743 1.2225.69035 1.1448.54688 1.0526.41817.9473.30525.8304.20905.7037.13034.5686.0697.427.0277.2806.002.061-.14195.9056-.0494 1.2515.10266 1.1055.23573.9461.34877.7746.44076.5934.511.4041.55887.2091 1.70555.1902 1.96343.3462 1.66775.4046.59667-.01.61841-.205.61712-.4068.59267-.6087.54509-.8083.4746-1.0038.38159-1.193.17634-.8995.0229-.057.122-.2542.21156-.3774.31694-.4897.43711-.5897.57087-.676.71693-.7471.8739-.802 1.04027-.8397 1.21447-.859 1.39481-.8593 1.57957-.8398 1.76693-.8002.67288-.2546 1.76689.9467 1.7033 1.0568.11594.7101.19052 1.9303.0625 1.7878-.0468 1.6376-.13668 1.4813-.20702 1.3207-.25763 1.1578-.28856.9945-.29995.8323-.29216.6734-.26566.5194-.22106.3719-.15915.2328-.0377.048-.69085.6025-.84231.9269-.63202.9129-.4275.8763-.23077.8176-.0438.7378.13166.6381.29374.5194 1.18426 1.242 1.28154 1.5273 1.0175 1.3819.4605.3795.6055.2404.73424.085.84523-.085.93716-.2689 1.0088-.4639 1.05911-.6685.71331-.5758.0541-.029.25684-.1163.40466-.1531.5576-.1715.71391-.1708.8718-.1508 1.02943-.1115 1.18499-.053 1.33661.026 1.4825.1226 1.62082.2383 1.74986.372 1.86786.5228.67913.2375z"/>
    <path d="M55.87982 159.429l-.91724-.3706-.94087-.3057-.95988-.2393-.97425-.1718-.98386-.1034-.98867-.034-.98868.034-.98385.1034-.97425.1718-.95989.2393-.94086.3057-.91724.3706-.88916.4337-.85674.4946-.82015.5532-.77956.6091-.73517.6619-.68721.7117-.6359.7578-.58148.8003-.52424.839-.46443.8735-.40238.9037-.33835.9296-.27268.951-.20569.9676-.13768.9797-.069.9869v.9892l.069.9869.13768.9797.20569.9676.27268.951.33835.9296.40238.9037.46443.8735.52424.839.58148.8003.6359.7578.68721.7117.73517.6619.77956.6091.82015.5532.85674.4946.88916.4337.91724.3706.94086.3057.95989.2393.97425.1718.98385.1034.98868.034.98867-.034.98386-.1034.97425-.1718.95988-.2393.94087-.3057.91724-.3706.88915-.4337.85675-.4946.82013-.5532.77957-.6091.73518-.6619.6872-.7117.6359-.7578.58149-.8003.52422-.839.46444-.8735.40238-.9037.33835-.9296.27268-.951.20568-.9676.13768-.9797.069-.9869v-.9892l-.069-.9869-.13768-.9797-.20568-.9676-.27268-.951-.33835-.9296-.40238-.9037-.46444-.8735-.52422-.839-.58149-.8003-.6359-.7578-.6872-.7117-.73518-.6619-.77957-.6091-.82013-.5532-.85675-.4946-.88915-.4337z"/>
    <path stroke-width=".19999999" d="M49.99293 167.869373v7.82742"/>
    <path stroke-width=".2" d="M46.31193 171.903793h7.83222"/>
  </g>
</svg>
